<mxfile host="app.diagrams.net" modified="2023-11-30T14:02:02.275Z" agent="Mozilla/5.0 (Windows NT 10.0; Win64; x64) AppleWebKit/537.36 (KHTML, like Gecko) Chrome/119.0.0.0 Safari/537.36 Edg/119.0.0.0" etag="CG3nVE4myhnUG7TLW9z5" version="22.1.5" type="device">
  <diagram id="C5RBs43oDa-KdzZeNtuy" name="Page-1">
    <mxGraphModel dx="1833" dy="672" grid="1" gridSize="10" guides="1" tooltips="1" connect="1" arrows="1" fold="1" page="1" pageScale="1" pageWidth="827" pageHeight="1169" math="0" shadow="0">
      <root>
        <mxCell id="WIyWlLk6GJQsqaUBKTNV-0" />
        <mxCell id="WIyWlLk6GJQsqaUBKTNV-1" parent="WIyWlLk6GJQsqaUBKTNV-0" />
        <mxCell id="XMlBl6SDc0OY50Vr-nnj-9" value="" style="edgeStyle=orthogonalEdgeStyle;rounded=0;orthogonalLoop=1;jettySize=auto;html=1;" edge="1" parent="WIyWlLk6GJQsqaUBKTNV-1" source="XMlBl6SDc0OY50Vr-nnj-0" target="XMlBl6SDc0OY50Vr-nnj-5">
          <mxGeometry relative="1" as="geometry" />
        </mxCell>
        <mxCell id="XMlBl6SDc0OY50Vr-nnj-14" value="" style="edgeStyle=orthogonalEdgeStyle;rounded=0;orthogonalLoop=1;jettySize=auto;html=1;" edge="1" parent="WIyWlLk6GJQsqaUBKTNV-1" source="XMlBl6SDc0OY50Vr-nnj-0" target="XMlBl6SDc0OY50Vr-nnj-10">
          <mxGeometry relative="1" as="geometry" />
        </mxCell>
        <mxCell id="XMlBl6SDc0OY50Vr-nnj-0" value="Product" style="swimlane;fontStyle=1;align=center;verticalAlign=top;childLayout=stackLayout;horizontal=1;startSize=26;horizontalStack=0;resizeParent=1;resizeParentMax=0;resizeLast=0;collapsible=1;marginBottom=0;whiteSpace=wrap;html=1;" vertex="1" parent="WIyWlLk6GJQsqaUBKTNV-1">
          <mxGeometry x="310" y="579" width="160" height="110" as="geometry" />
        </mxCell>
        <mxCell id="XMlBl6SDc0OY50Vr-nnj-1" value="+ Int: id&lt;br&gt;+ String: nombre&lt;br&gt;+ String: descripcon&lt;br&gt;+ Double: precio&lt;br&gt;+ Integer: cantidad" style="text;strokeColor=none;fillColor=none;align=left;verticalAlign=top;spacingLeft=4;spacingRight=4;overflow=hidden;rotatable=0;points=[[0,0.5],[1,0.5]];portConstraint=eastwest;whiteSpace=wrap;html=1;" vertex="1" parent="XMlBl6SDc0OY50Vr-nnj-0">
          <mxGeometry y="26" width="160" height="84" as="geometry" />
        </mxCell>
        <mxCell id="XMlBl6SDc0OY50Vr-nnj-4" value="@Entity" style="text;html=1;align=center;verticalAlign=middle;resizable=0;points=[];autosize=1;strokeColor=none;fillColor=none;" vertex="1" parent="WIyWlLk6GJQsqaUBKTNV-1">
          <mxGeometry x="355" y="544" width="70" height="30" as="geometry" />
        </mxCell>
        <mxCell id="XMlBl6SDc0OY50Vr-nnj-5" value="ProductController" style="swimlane;fontStyle=1;align=center;verticalAlign=top;childLayout=stackLayout;horizontal=1;startSize=26;horizontalStack=0;resizeParent=1;resizeParentMax=0;resizeLast=0;collapsible=1;marginBottom=0;whiteSpace=wrap;html=1;" vertex="1" parent="WIyWlLk6GJQsqaUBKTNV-1">
          <mxGeometry x="70" y="589" width="160" height="90" as="geometry" />
        </mxCell>
        <mxCell id="XMlBl6SDc0OY50Vr-nnj-6" value="/crearProducto&lt;br&gt;/actualizarProducto&lt;br&gt;/producto/:id&lt;br&gt;/eliminarProducto" style="text;strokeColor=none;fillColor=none;align=left;verticalAlign=top;spacingLeft=4;spacingRight=4;overflow=hidden;rotatable=0;points=[[0,0.5],[1,0.5]];portConstraint=eastwest;whiteSpace=wrap;html=1;" vertex="1" parent="XMlBl6SDc0OY50Vr-nnj-5">
          <mxGeometry y="26" width="160" height="64" as="geometry" />
        </mxCell>
        <mxCell id="XMlBl6SDc0OY50Vr-nnj-19" value="" style="edgeStyle=orthogonalEdgeStyle;rounded=0;orthogonalLoop=1;jettySize=auto;html=1;" edge="1" parent="WIyWlLk6GJQsqaUBKTNV-1" source="XMlBl6SDc0OY50Vr-nnj-10" target="XMlBl6SDc0OY50Vr-nnj-15">
          <mxGeometry relative="1" as="geometry" />
        </mxCell>
        <mxCell id="XMlBl6SDc0OY50Vr-nnj-24" value="" style="edgeStyle=orthogonalEdgeStyle;rounded=0;orthogonalLoop=1;jettySize=auto;html=1;" edge="1" parent="WIyWlLk6GJQsqaUBKTNV-1" source="XMlBl6SDc0OY50Vr-nnj-10" target="XMlBl6SDc0OY50Vr-nnj-20">
          <mxGeometry relative="1" as="geometry" />
        </mxCell>
        <mxCell id="XMlBl6SDc0OY50Vr-nnj-10" value="ProductServiceImpl" style="swimlane;fontStyle=1;align=center;verticalAlign=top;childLayout=stackLayout;horizontal=1;startSize=26;horizontalStack=0;resizeParent=1;resizeParentMax=0;resizeLast=0;collapsible=1;marginBottom=0;whiteSpace=wrap;html=1;" vertex="1" parent="WIyWlLk6GJQsqaUBKTNV-1">
          <mxGeometry x="550" y="584" width="160" height="100" as="geometry" />
        </mxCell>
        <mxCell id="XMlBl6SDc0OY50Vr-nnj-11" value="- crearProducto()&lt;br style=&quot;border-color: var(--border-color);&quot;&gt;- ActualizarProducto()&lt;br style=&quot;border-color: var(--border-color);&quot;&gt;- consultarProducto()&lt;br style=&quot;border-color: var(--border-color);&quot;&gt;- eliminarProducto()" style="text;strokeColor=none;fillColor=none;align=left;verticalAlign=top;spacingLeft=4;spacingRight=4;overflow=hidden;rotatable=0;points=[[0,0.5],[1,0.5]];portConstraint=eastwest;whiteSpace=wrap;html=1;" vertex="1" parent="XMlBl6SDc0OY50Vr-nnj-10">
          <mxGeometry y="26" width="160" height="74" as="geometry" />
        </mxCell>
        <mxCell id="XMlBl6SDc0OY50Vr-nnj-15" value="ProductService" style="swimlane;fontStyle=1;align=center;verticalAlign=top;childLayout=stackLayout;horizontal=1;startSize=26;horizontalStack=0;resizeParent=1;resizeParentMax=0;resizeLast=0;collapsible=1;marginBottom=0;whiteSpace=wrap;html=1;" vertex="1" parent="WIyWlLk6GJQsqaUBKTNV-1">
          <mxGeometry x="550" y="750" width="160" height="90" as="geometry" />
        </mxCell>
        <mxCell id="XMlBl6SDc0OY50Vr-nnj-16" value="- crearProducto()&lt;br style=&quot;border-color: var(--border-color);&quot;&gt;- ActualizarProducto()&lt;br style=&quot;border-color: var(--border-color);&quot;&gt;- consultarProducto()&lt;br style=&quot;border-color: var(--border-color);&quot;&gt;- eliminarProducto()" style="text;strokeColor=none;fillColor=none;align=left;verticalAlign=top;spacingLeft=4;spacingRight=4;overflow=hidden;rotatable=0;points=[[0,0.5],[1,0.5]];portConstraint=eastwest;whiteSpace=wrap;html=1;" vertex="1" parent="XMlBl6SDc0OY50Vr-nnj-15">
          <mxGeometry y="26" width="160" height="64" as="geometry" />
        </mxCell>
        <mxCell id="XMlBl6SDc0OY50Vr-nnj-33" value="" style="edgeStyle=orthogonalEdgeStyle;rounded=0;orthogonalLoop=1;jettySize=auto;html=1;" edge="1" parent="WIyWlLk6GJQsqaUBKTNV-1" source="XMlBl6SDc0OY50Vr-nnj-20" target="XMlBl6SDc0OY50Vr-nnj-29">
          <mxGeometry relative="1" as="geometry" />
        </mxCell>
        <mxCell id="XMlBl6SDc0OY50Vr-nnj-20" value="ProductRepository" style="swimlane;fontStyle=1;align=center;verticalAlign=top;childLayout=stackLayout;horizontal=1;startSize=26;horizontalStack=0;resizeParent=1;resizeParentMax=0;resizeLast=0;collapsible=1;marginBottom=0;whiteSpace=wrap;html=1;" vertex="1" parent="WIyWlLk6GJQsqaUBKTNV-1">
          <mxGeometry x="790" y="617" width="160" height="34" as="geometry" />
        </mxCell>
        <mxCell id="XMlBl6SDc0OY50Vr-nnj-25" value="@Service" style="text;html=1;align=center;verticalAlign=middle;resizable=0;points=[];autosize=1;strokeColor=none;fillColor=none;" vertex="1" parent="WIyWlLk6GJQsqaUBKTNV-1">
          <mxGeometry x="590" y="549" width="80" height="30" as="geometry" />
        </mxCell>
        <mxCell id="XMlBl6SDc0OY50Vr-nnj-26" value="@Repository" style="text;html=1;align=center;verticalAlign=middle;resizable=0;points=[];autosize=1;strokeColor=none;fillColor=none;" vertex="1" parent="WIyWlLk6GJQsqaUBKTNV-1">
          <mxGeometry x="825" y="582" width="90" height="30" as="geometry" />
        </mxCell>
        <mxCell id="XMlBl6SDc0OY50Vr-nnj-27" value="@RestController" style="text;html=1;align=center;verticalAlign=middle;resizable=0;points=[];autosize=1;strokeColor=none;fillColor=none;" vertex="1" parent="WIyWlLk6GJQsqaUBKTNV-1">
          <mxGeometry x="95" y="554" width="110" height="30" as="geometry" />
        </mxCell>
        <mxCell id="XMlBl6SDc0OY50Vr-nnj-29" value="JpaRepository" style="swimlane;fontStyle=1;align=center;verticalAlign=top;childLayout=stackLayout;horizontal=1;startSize=26;horizontalStack=0;resizeParent=1;resizeParentMax=0;resizeLast=0;collapsible=1;marginBottom=0;whiteSpace=wrap;html=1;" vertex="1" parent="WIyWlLk6GJQsqaUBKTNV-1">
          <mxGeometry x="790" y="783" width="160" height="34" as="geometry" />
        </mxCell>
      </root>
    </mxGraphModel>
  </diagram>
</mxfile>
